nColumns=19
nRows=49
DataType=double
version=3
OpenSimVersion=4.1
endheader
time	ground_force_1_vx	ground_force_1_vy	ground_force_1_vz	ground_force_1_px	ground_force_1_py	ground_force_1_pz	ground_force_1_mx	ground_force_1_my	ground_force_1_mz	ground_force_2_vx	ground_force_2_vy	ground_force_2_vz	ground_force_2_px	ground_force_2_py	ground_force_2_pz	ground_force_2_mx	ground_force_2_my	ground_force_2_mz
0	-10.7865	221.706	23.3925	0.119822	0.006	-0.147111	0	0.53762	0	0	0	0	0.689666	0	-0.268196	0	0	0
0.01	-18.951	255.035	23.4947	0.125251	0.006	-0.146492	0	0.349582	0	0	0	0	0.689666	0	-0.268196	0	0	0
0.02	-27.9314	292.564	22.8554	0.131467	0.006	-0.145598	0	0.11867	0	0	0	0	0.689666	0	-0.268196	0	0	0
0.03	-37.5033	333.526	21.2383	0.137456	0.006	-0.144547	0	-0.155152	0	0	0	0	0.689666	0	-0.268196	0	0	0
0.04	-47.4154	376.901	18.4336	0.143213	0.006	-0.143367	0	-0.469173	0	0	0	0	0.689666	0	-0.268196	0	0	0
0.05	-57.3919	421.513	14.3074	0.148747	0.006	-0.142087	0	-0.815405	0	0	0	0	0.689666	0	-0.268196	0	0	0
0.06	-67.1272	466.103	8.85036	0.154061	0.006	-0.140745	0	-1.17803	0	0	0	0	0.689666	0	-0.268196	0	0	0
0.07	-76.2983	509.38	2.21438	0.159148	0.006	-0.139384	0	-1.53328	0	0	0	0	0.689666	0	-0.268196	0	0	0
0.08	-84.584	550.092	-5.28648	0.163994	0.006	-0.138052	0	-1.85331	0	0	0	0	0.689666	0	-0.268196	0	0	0
0.09	-91.6847	587.123	-13.2222	0.168584	0.006	-0.136795	0	-2.11345	0	0	0	0	0.689666	0	-0.268196	0	0	0
0.1	-97.3574	619.594	-21.13	0.172912	0.006	-0.135648	0	-2.2994	0	0	0	0	0.689666	0	-0.268196	0	0	0
0.11	-101.463	646.931	-28.6002	0.176987	0.006	-0.134635	0	-2.41044	0	0	0	0	0.689666	0	-0.268196	0	0	0
0.12	-103.979	668.871	-35.3029	0.180831	0.006	-0.133768	0	-2.45543	0	0	0	0	0.689666	0	-0.268196	0	0	0
0.13	-104.964	685.405	-40.9814	0.184473	0.006	-0.133053	0	-2.4471	0	0	0	0	0.689666	0	-0.268196	0	0	0
0.14	-104.535	696.713	-45.4683	0.187943	0.006	-0.132493	0	-2.39999	0	0	0	0	0.689666	0	-0.268196	0	0	0
0.15	-102.855	703.11	-48.6978	0.191274	0.006	-0.132083	0	-2.32907	0	0	0	0	0.689666	0	-0.268196	0	0	0
0.16	-100.106	705.006	-50.6919	0.194499	0.006	-0.131814	0	-2.24733	0	0	0	0	0.689666	0	-0.268196	0	0	0
0.17	-96.4689	702.877	-51.537	0.197646	0.006	-0.131678	0	-2.16427	0	0	0	0	0.689666	0	-0.268196	0	0	0
0.18	-92.1141	697.264	-51.3693	0.200741	0.006	-0.13166	0	-2.08642	0	0	0	0	0.689666	0	-0.268196	0	0	0
0.19	-87.2049	688.777	-50.3672	0.203805	0.006	-0.131748	0	-2.01829	0	0	0	0	0.689666	0	-0.268196	0	0	0
0.2	-81.8957	678.086	-48.7392	0.206856	0.006	-0.131925	0	-1.96321	0	0	0	0	0.689666	0	-0.268196	0	0	0
0.21	-76.3329	665.901	-46.7052	0.209906	0.006	-0.132176	0	-1.92388	0	0	0	0	0.689666	0	-0.268196	0	0	0
0.22	-70.6506	652.941	-44.4725	0.212964	0.006	-0.132486	0	-1.90271	0	0	0	0	0.689666	0	-0.268196	0	0	0
0.23	-64.9668	639.905	-42.2168	0.216033	0.006	-0.132841	0	-1.90206	0	0	0	0	0.689666	0	-0.268196	0	0	0
0.24	-59.3807	627.434	-40.0699	0.219113	0.006	-0.13323	0	-1.92436	0	0	0	0	0.689666	0	-0.268196	0	0	0
0.25	-53.9705	616.086	-38.1154	0.222197	0.006	-0.133643	0	-1.97191	0	0	0	0	0.689666	0	-0.268196	0	0	0
0.26	-48.7876	606.312	-36.3941	0.225279	0.006	-0.134074	0	-2.04676	0	0	0	0	0.689666	0	-0.268196	0	0	0
0.27	-43.853	598.448	-34.9236	0.228351	0.006	-0.134516	0	-2.15048	0	0	0	0	0.689666	0	-0.268196	0	0	0
0.28	-39.16	592.712	-33.7162	0.231409	0.006	-0.134962	0	-2.28345	0	0	0	0	0.689666	0	-0.268196	0	0	0
0.29	-34.687	589.212	-32.7936	0.234454	0.006	-0.135398	0	-2.44433	0	0	0	0	0.689666	0	-0.268196	0	0	0
0.3	-30.409	587.966	-32.1902	0.237504	0.006	-0.135811	0	-2.6298	0	0	0	0	0.689666	0	-0.268196	0	0	0
0.31	-26.3032	588.925	-31.9479	0.240586	0.006	-0.136184	0	-2.83478	0	0	0	0	0.689666	0	-0.268196	0	0	0
0.32	-22.3468	592.002	-32.1074	0.243735	0.006	-0.136501	0	-3.05294	0	0	0	0	0.689666	0	-0.268196	0	0	0
0.33	-18.5126	597.081	-32.7006	0.246986	0.006	-0.136751	0	-3.27743	0	0	0	0	0.689666	0	-0.268196	0	0	0
0.34	-14.7643	604.029	-33.7456	0.250369	0.006	-0.136925	0	-3.50111	0	0	0	0	0.689666	0	-0.268196	0	0	0
0.35	-11.063	612.701	-35.2431	0.25391	0.006	-0.137022	0	-3.71652	0	0	0	0	0.689666	0	-0.268196	0	0	0
0.36	-7.37428	622.939	-37.1778	0.257626	0.006	-0.137042	0	-3.91568	0	0	0	0	0.689666	0	-0.268196	0	0	0
0.37	-3.67317	634.569	-39.5194	0.261534	0.006	-0.136992	0	-4.08978	0	0	0	0	0.689666	0	-0.268196	0	0	0
0.38	0.0570649	647.394	-42.2246	0.265641	0.006	-0.136879	0	-4.22931	0	0	0	0	0.689666	0	-0.268196	0	0	0
0.39	3.82908	661.183	-45.2379	0.26995	0.006	-0.136713	0	-4.32468	0	0	0	0	0.689666	0	-0.268196	0	0	0
0.4	7.65672	675.672	-48.4912	0.274448	0.006	-0.136507	0	-4.3672	0	0	0	0	0.689666	0	-0.268196	0	0	0
0.41	11.562	690.559	-51.9043	0.279112	0.006	-0.136277	0	-4.35034	0	0	0	0	0.689666	0	-0.268196	0	0	0
0.42	15.5789	705.503	-55.3861	0.2839	0.006	-0.136039	0	-4.27092	0	0	0	0	0.689666	0	-0.268196	0	0	0
0.43	19.752	720.111	-58.8358	0.288756	0.006	-0.13581	0	-4.13007	0	0	0	0	0.689666	0	-0.268196	0	0	0
0.44	24.1321	733.927	-62.1444	0.293616	0.006	-0.135609	0	-3.93358	0	0	0	0	0.689666	0	-0.268196	0	0	0
0.45	28.766	746.429	-65.199	0.298415	0.006	-0.135451	0	-3.69155	0	0	0	0	0.689666	0	-0.268196	0	0	0
0.46	33.6844	757.033	-67.8889	0.303091	0.006	-0.135349	0	-3.41743	0	0	0	0	0.689666	0	-0.268196	0	0	0
0.47	38.8928	765.109	-70.1134	0.307592	0.006	-0.135315	0	-3.12635	0	0	0	0	0.689666	0	-0.268196	0	0	0
0.48	44.3648	769.994	-71.7883	0.311883	0.006	-0.135354	0	-2.8331	0	0	0	0	0.689666	0	-0.268196	0	0	0
